<?xml version="1.0" standalone="no"?>
<!DOCTYPE svg PUBLIC "-//W3C//DTD SVG 20010904//EN"
 "http://www.w3.org/TR/2001/REC-SVG-20010904/DTD/svg10.dtd">
<svg version="1.0" xmlns="http://www.w3.org/2000/svg"
 width="478.000000pt" height="478.000000pt" viewBox="0 0 478.000000 478.000000"
 preserveAspectRatio="xMidYMid meet">
<metadata>
Created by potrace 1.11, written by Peter Selinger 2001-2013
</metadata>
<g transform="translate(0.000000,478.000000) scale(0.100000,-0.100000)"
fill="#000000" stroke="none">
<path d="M1982 4523 c-19 -16 -24 -40 -44 -207 l-22 -189 -30 -12 c-17 -7
-366 -135 -776 -285 -410 -149 -764 -280 -787 -290 -43 -19 -73 -60 -73 -100
0 -21 1109 -3071 1135 -3120 20 -38 39 -51 82 -57 32 -3 201 55 998 347 l960
351 301 -36 c331 -40 339 -40 349 18 3 17 93 758 200 1646 133 1111 191 1620
185 1632 -6 10 -18 20 -27 23 -10 3 -542 69 -1183 146 -641 77 -1183 143
-1205 146 -31 4 -46 1 -63 -13z m-252 -1942 c-89 -738 -159 -1352 -156 -1365
3 -13 13 -27 22 -30 16 -6 1407 -176 1441 -176 9 0 14 -3 10 -6 -6 -6 -1530
-564 -1533 -561 -5 7 -1068 2926 -1072 2943 -3 19 9 26 110 63 62 22 388 141
723 264 336 123 611 220 613 216 2 -4 -70 -611 -158 -1348z"/>
</g>
</svg>
